<svg xmlns="http://www.w3.org/2000/svg" width="345" height="345" viewBox="0 0 345 345"><defs><clipPath id="a"><path d="M0 25h320v320H0z"/></clipPath></defs><path fill="none" stroke="#000" d="M0 345V25M32 345V25M64 345V25M96 345V25M128 345V25M160 345V25M192 345V25M224 345V25M256 345V25M288 345V25M320 345V25M0 345h320M0 313h320M0 281h320M0 249h320M0 217h320M0 185h320M0 153h320M0 121h320M0 89h320M0 57h320M0 25h320" stroke-width="2" opacity=".1"/><path fill="none" stroke="#000" d="M7.05 179.4c-.35 2.1-4.2 5.25-5.25 5.6 1.05.35 4.9 3.5 5.25 5.6" stroke-width="2" stroke-linejoin="round" stroke-linecap="round"/><path fill="none" stroke="#000" d="M160 185H1.05" stroke-width="2"/><path fill="none" stroke="#000" d="M314.45 190.6c.35-2.1 4.2-5.25 5.25-5.6-1.05-.35-4.9-3.5-5.25-5.6" stroke-width="2" stroke-linejoin="round" stroke-linecap="round"/><path fill="none" stroke="#000" d="M160 185h158.95" stroke-width="2"/><path fill="none" stroke="#000" d="M155.15 338.7c2.1.35 5.25 4.2 5.6 5.25.35-1.05 3.5-4.9 5.6-5.25" stroke-width="2" stroke-linejoin="round" stroke-linecap="round"/><path fill="none" stroke="#000" d="M160 185v158.95" stroke-width="2"/><path fill="none" stroke="#000" d="M166.35 31.3c-2.1-.35-5.25-4.2-5.6-5.25-.35 1.05-3.5 4.9-5.6 5.25" stroke-width="2" stroke-linejoin="round" stroke-linecap="round"/><path fill="none" stroke="#000" d="M160 185V26.05" stroke-width="2"/><path fill="none" stroke="#000" d="M192 190v-10M224 190v-10M256 190v-10M288 190v-10M128 190v-10M96 190v-10M64 190v-10M32 190v-10M155 153h10M155 121h10M155 89h10M155 57h10M155 217h10M155 249h10M155 281h10M155 313h10"/><path fill="none" stroke="#11accd" d="M0 249.001l.5-.333.5-.334.5-.333.5-.333.5-.334.5-.333.5-.333.5-.334.5-.333.5-.333.5-.334.5-.333.5-.333.5-.334.5-.333.5-.333.5-.334.5-.333.5-.333.5-.334.5-.333.5-.333.5-.334.5-.333.5-.333.5-.334.5-.333.5-.333.5-.334.5-.333.5-.333.5-.334.5-.333.5-.333.5-.334.5-.333.5-.333.5-.334.5-.333.5-.333.5-.334.5-.333.5-.333.5-.334.5-.333.5-.333.5-.334.5-.333.5-.333.5-.334.5-.333.5-.333.5-.334.5-.333.5-.333.5-.334.5-.333.5-.333.5-.334.5-.333.5-.333.5-.334.5-.333.5-.333.5-.334.5-.333.5-.333.5-.334.5-.333.5-.333.5-.334.5-.333.5-.333.5-.334.5-.333.5-.333.5-.334.5-.333.5-.333.5-.334.5-.333.5-.333.5-.334.5-.333.5-.333.5-.334.5-.333.5-.333.5-.334.5-.333.5-.333.5-.334.5-.333.5-.333.5-.334.5-.333.5-.333.5-.334.5-.333.5-.333.5-.334.5-.333.5-.333.5-.334.5-.333.5-.333.5-.334.5-.333.5-.333.5-.334.5-.333.5-.333.5-.334.5-.333.5-.333.5-.334.5-.333.5-.333.5-.334.5-.333.5-.333.5-.334.5-.333.5-.333.5-.334.5-.333.5-.333.5-.334.5-.333.5-.333.5-.334.5-.333.5-.333.5-.334.5-.333.5-.333.5-.334.5-.333.5-.333.5-.334.5-.333.5-.333.5-.334.5-.333.5-.333.5-.334.5-.333.5-.333.5-.334.5-.333.5-.333.5-.334.5-.333.5-.333.5-.334.5-.333.5-.333.5-.334.5-.333.5-.333.5-.334.5-.333.5-.333.5-.334.5-.333.5-.333.5-.334.5-.333.5-.333.5-.334.5-.333.5-.333.5-.334.5-.333.5-.333.5-.334.5-.333.5-.333.5-.334.5-.333.5-.333.5-.334.5-.333.5-.333.5-.334.5-.333.5-.333.5-.334.5-.333.5-.333.5-.334.5-.333.5-.333.5-.334.5-.333.5-.333.5-.334.5-.333.5-.333.5-.334.5-.333.5-.333.5-.334.5-.333.5-.333.5-.334.5-.333.5-.333.5-.334.5-.333.5-.333.5-.334.5-.333.5-.333.5-.334.5-.333.5-.333.5-.334.5-.333.5-.333.5-.334.5-.333.5-.333.5-.334.5-.333.5-.333.5-.334.5-.333.5-.333.5-.334.5-.333.5-.333.5-.334.5-.333.5-.333.5-.334.5-.333.5-.333.5-.334.5-.333.5-.333.5-.334.5-.333.5-.333.5-.334.5-.333.5-.333.5-.334.5-.333.5-.333.5-.334.5-.333.5-.333.5-.334.5-.333.5-.333.5-.334.5-.333.5-.333.5-.334.5-.333.5-.333.5-.334.5-.333.5-.333.5-.334.5-.333.5-.333.5-.334.5-.333.5-.333.5-.334.5-.333.5-.333.5-.334.5-.333.5-.333.5-.334.5-.333.5-.333.5-.334.5-.333.5-.333.5-.334.5-.333.5-.333.5-.334.5-.333.5-.333.5-.334.5-.333.5-.333.5-.334.5-.333.5-.333.5-.334.5-.333.5-.333.5-.334.5-.333.5-.333.5-.334.5-.333.5-.333.5-.334.5-.333.5-.333.5-.334.5-.333.5-.333.5-.334.5-.333.5-.333.5-.334.5-.333.5-.333.5-.334.5-.333.5-.333.5-.334.5-.333.5-.333.5-.334.5-.333.5-.333.5-.334.5-.333.5-.333.5-.334.5-.333.5-.333.5-.334.5-.333.5-.333.5-.334.5-.333.5-.333.5-.334.5-.333.5-.333.5-.334.5-.333.5-.333.5-.334.5-.333.5-.333.5-.334.5-.333.5-.333.5-.334.5-.333.5-.333.5-.334.5-.333.5-.333.5-.334.5-.333.5-.333.5-.334.5-.333.5-.333.5-.334.5-.333.5-.333.5-.334.5-.333.5-.333.5-.334.5-.333.5-.333.5-.334.5-.333.5-.333.5-.334.5-.333.5-.333.5-.334.5-.333.5-.333.5-.334.5-.333.5-.333.5-.334.5-.333.5-.333.5-.334.5-.333.5-.333.5-.334.5-.333.5-.333.5-.334.5-.333.5-.333.5-.334.5-.333.5-.333.5-.334.5-.333.5-.333.5-.334.5-.333.5-.333.5-.334.5-.333.5-.333.5-.334.5-.333.5-.333.5-.334.5-.333.5-.333.5-.334.5-.333.5-.333.5-.334.5-.333.5-.333.5-.334.5-.333.5-.333.5-.334.5-.333.5-.333.5-.334.5-.333.5-.333.5-.334.5-.333.5-.333.5-.334.5-.333.5-.333.5-.334.5-.333.5-.333.5-.334.5-.333.5-.333.5-.334.5-.333.5-.333.5-.334.5-.333.5-.333.5-.334.5-.333.5-.333.5-.334.5-.333.5-.333.5-.334.5-.333.5-.333.5-.334.5-.333.5-.333.5-.334.5-.333.5-.333.5-.334.5-.333.5-.333.5-.334.5-.333.5-.333.5-.334.5-.333.5-.333.5-.334.5-.333.5-.333.5-.334.5-.333.5-.333.5-.334.5-.333.5-.333.5-.334.5-.333.5-.333.5-.334.5-.333.5-.333.5-.334.5-.333.5-.333.5-.334.5-.333.5-.333.5-.334.5-.333.5-.333.5-.334.5-.333.5-.333.5-.334.5-.333.5-.333.5-.334.5-.333.5-.333.5-.334.5-.333.5-.333.5-.334.5-.333.5-.333.5-.334.5-.333.5-.333.5-.334.5-.333.5-.333.5-.334.5-.333.5-.333.5-.334.5-.333.5-.333.5-.334.5-.333.5-.333.5-.334.5-.333.5-.333.5-.334.5-.333.5-.333.5-.334.5-.333.5-.333.5-.334.5-.333.5-.333.5-.334.5-.333.5-.333.5-.334.5-.333.5-.333.5-.334.5-.333.5-.333.5-.334.5-.333.5-.333.5-.334.5-.333.5-.333.5-.334.5-.333.5-.333.5-.334.5-.333.5-.333.5-.334.5-.333.5-.333.5-.334.5-.333.5-.333.5-.334.5-.333.5-.333.5-.334.5-.333.5-.333.5-.334.5-.333.5-.333.5-.334.5-.333.5-.333.5-.334.5-.333.5-.333.5-.334.5-.333.5-.333.5-.334.5-.333.5-.333.5-.334.5-.333.5-.333.5-.334.5-.333.5-.333.5-.334.5-.333.5-.333.5-.334.5-.333.5-.333.5-.334.5-.333.5-.333.5-.334.5-.333.5-.333.5-.334.5-.333.5-.333.5-.334.5-.333.5-.333.5-.334.5-.333.5-.333.5-.334.5-.333.5-.333.5-.334.5-.333.5-.333.5-.334.5-.333.5-.333.5-.334.5-.333.5-.333.5-.334.5-.333.5-.333.5-.334.5-.333.5-.333.5-.334.5-.333.5-.333.5-.334.5-.333.5-.333.5-.334.5-.333.5-.333.5-.334.5-.333.5-.333" stroke-width="3" clip-path="url(#a)"/></svg>
