<?xml-stylesheet type="text/css" href="../css/app.css"?>
<?xml-stylesheet type="text/css" href="../css/animation.css"?>

<svg class="title-svg" width="434" height="82" viewBox="0 0 434 82" fill="none" xmlns="http://www.w3.org/2000/svg">
    <g filter="url(#filter0_d)">
        <!-- <mask id="path-1-outside-1" maskUnits="userSpaceOnUse" x="3.14062" y="-0.40625" width="427" height="75"
            fill="black">
            <rect fill="white" x="3.14062" y="-0.40625" width="427" height="75" />
            <path
                d="M5.14062 72L8.60938 1.73438H18.9219L39.0781 56.7188L58.8594 1.73438H69.1719L72.875 72H63.5938L61.1562 15.7031L41.75 72H36.3125L15.9688 16.125L13.9062 72H5.14062Z" />
            <path
                d="M123.219 72H115.906L114.406 64.6406C113.469 67.8594 111.766 70.0156 109.297 71.1094C106.859 72.1719 103.281 72.7031 98.5625 72.7031C95.4375 72.7031 92.875 72.4062 90.875 71.8125C88.875 71.1875 87.2812 70.1562 86.0938 68.7188C84.9062 67.2812 84.0781 65.5312 83.6094 63.4688C83.1719 61.375 82.9531 58.6875 82.9531 55.4062C82.9531 53.9375 83.2031 52.625 83.7031 51.4688C84.2344 50.3125 84.9375 49.3281 85.8125 48.5156C86.7188 47.7031 87.9062 47 89.375 46.4062C90.875 45.8125 92.4219 45.3438 94.0156 45C95.6094 44.6562 97.5312 44.3906 99.7812 44.2031C102.062 43.9844 104.281 43.8438 106.438 43.7812C108.594 43.7188 111.109 43.6875 113.984 43.6875V29.7656C113.984 28.1719 113.234 27.0781 111.734 26.4844C110.234 25.8594 107.562 25.5469 103.719 25.5469C101.031 25.5469 99.0156 25.6094 97.6719 25.7344C96.3281 25.8594 95.2969 26.2344 94.5781 26.8594C93.8906 27.4531 93.4844 28.0469 93.3594 28.6406C93.2656 29.2344 93.2031 30.3438 93.1719 31.9688C93.1406 32.5625 93.125 33.0312 93.125 33.375L85.9531 33.0938C85.8906 32.5938 85.8594 31.8594 85.8594 30.8906C85.8594 28.7969 86.1562 27.0312 86.75 25.5938C87.375 24.125 88.1719 22.9844 89.1406 22.1719C90.1094 21.3281 91.4375 20.6719 93.125 20.2031C94.8125 19.7344 96.4844 19.4375 98.1406 19.3125C99.7969 19.1875 101.859 19.125 104.328 19.125C108.078 19.125 111.125 19.4219 113.469 20.0156C115.812 20.5781 117.734 21.6094 119.234 23.1094C120.734 24.6094 121.766 26.5312 122.328 28.875C122.922 31.1875 123.219 34.2188 123.219 37.9688V72ZM113.984 57.2812V49.2656C107.828 49.2656 103.094 49.5 99.7812 49.9688C96.4688 50.4375 94.25 51.0938 93.125 51.9375C92.0312 52.75 91.4844 53.9062 91.4844 55.4062C91.4844 55.4688 91.4844 55.5625 91.4844 55.6875C91.4844 60.4375 91.875 63.3906 92.6562 64.5469C93.4375 65.7031 95.8281 66.2812 99.8281 66.2812C103.234 66.2812 106 65.875 108.125 65.0625C110.25 64.25 111.719 63.2188 112.531 61.9688C113.375 60.6875 113.859 59.125 113.984 57.2812Z" />
            <path
                d="M157.766 65.4844L157.578 72.0469C154.953 72.4844 152.578 72.7031 150.453 72.7031C148.172 72.7031 146.281 72.4531 144.781 71.9531C143.312 71.4531 142.203 70.6562 141.453 69.5625C140.703 68.4688 140.188 67.2656 139.906 65.9531C139.625 64.6094 139.484 62.9062 139.484 60.8438V25.8281H132.5V20.5781H139.484V5.95312L148.672 5.20312V20.5781H158.141V25.8281H148.672V57.7031C148.672 61.0781 148.828 63.2656 149.141 64.2656C149.484 65.2656 150.391 65.7656 151.859 65.7656C153.297 65.7656 155.266 65.6719 157.766 65.4844Z" />
            <path
                d="M210.875 72H201.641V40.7812C201.641 39.6562 201.656 38.2344 201.688 36.5156C201.75 34.7969 201.781 33.6562 201.781 33.0938C201.781 31.5312 201.656 30.3281 201.406 29.4844C201.188 28.6406 200.656 27.8906 199.812 27.2344C198.969 26.5781 197.781 26.1406 196.25 25.9219C194.719 25.7031 192.625 25.5938 189.969 25.5938C188.719 25.5938 187.531 25.6719 186.406 25.8281C185.312 25.9531 184.266 26.1875 183.266 26.5312C182.266 26.8438 181.453 27.2969 180.828 27.8906C180.203 28.4844 179.859 29.1875 179.797 30C179.359 35.625 179.141 40.6875 179.141 45.1875V72H169.859V2.34375L179.141 1.59375V24.4688C181.391 20.9062 186.047 19.125 193.109 19.125C194.953 19.1562 196.609 19.2812 198.078 19.5C199.578 19.6875 200.906 19.9219 202.062 20.2031C203.219 20.4844 204.234 20.875 205.109 21.375C205.984 21.875 206.734 22.3906 207.359 22.9219C207.984 23.4531 208.516 24.125 208.953 24.9375C209.391 25.7188 209.734 26.4844 209.984 27.2344C210.234 27.9844 210.422 28.9062 210.547 30C210.703 31.0938 210.797 32.125 210.828 33.0938C210.891 34.0312 210.922 35.1875 210.922 36.5625C210.922 37.1562 210.906 38.125 210.875 39.4688C210.875 40.7812 210.875 41.7969 210.875 42.5156V72Z" />
            <path
                d="M297.125 2.15625L282.312 72H272.141L258.828 17.0156L245.609 72H235.484L220.109 2.15625H230.141L241.109 58.9219L254.469 2.15625H263.891L277.625 58.9219L288.312 2.15625H297.125Z" />
            <path
                d="M343.719 72H336.406L334.906 64.6406C333.969 67.8594 332.266 70.0156 329.797 71.1094C327.359 72.1719 323.781 72.7031 319.062 72.7031C315.938 72.7031 313.375 72.4062 311.375 71.8125C309.375 71.1875 307.781 70.1562 306.594 68.7188C305.406 67.2812 304.578 65.5312 304.109 63.4688C303.672 61.375 303.453 58.6875 303.453 55.4062C303.453 53.9375 303.703 52.625 304.203 51.4688C304.734 50.3125 305.438 49.3281 306.312 48.5156C307.219 47.7031 308.406 47 309.875 46.4062C311.375 45.8125 312.922 45.3438 314.516 45C316.109 44.6562 318.031 44.3906 320.281 44.2031C322.562 43.9844 324.781 43.8438 326.938 43.7812C329.094 43.7188 331.609 43.6875 334.484 43.6875V29.7656C334.484 28.1719 333.734 27.0781 332.234 26.4844C330.734 25.8594 328.062 25.5469 324.219 25.5469C321.531 25.5469 319.516 25.6094 318.172 25.7344C316.828 25.8594 315.797 26.2344 315.078 26.8594C314.391 27.4531 313.984 28.0469 313.859 28.6406C313.766 29.2344 313.703 30.3438 313.672 31.9688C313.641 32.5625 313.625 33.0312 313.625 33.375L306.453 33.0938C306.391 32.5938 306.359 31.8594 306.359 30.8906C306.359 28.7969 306.656 27.0312 307.25 25.5938C307.875 24.125 308.672 22.9844 309.641 22.1719C310.609 21.3281 311.938 20.6719 313.625 20.2031C315.312 19.7344 316.984 19.4375 318.641 19.3125C320.297 19.1875 322.359 19.125 324.828 19.125C328.578 19.125 331.625 19.4219 333.969 20.0156C336.312 20.5781 338.234 21.6094 339.734 23.1094C341.234 24.6094 342.266 26.5312 342.828 28.875C343.422 31.1875 343.719 34.2188 343.719 37.9688V72ZM334.484 57.2812V49.2656C328.328 49.2656 323.594 49.5 320.281 49.9688C316.969 50.4375 314.75 51.0938 313.625 51.9375C312.531 52.75 311.984 53.9062 311.984 55.4062C311.984 55.4688 311.984 55.5625 311.984 55.6875C311.984 60.4375 312.375 63.3906 313.156 64.5469C313.938 65.7031 316.328 66.2812 320.328 66.2812C323.734 66.2812 326.5 65.875 328.625 65.0625C330.75 64.25 332.219 63.2188 333.031 61.9688C333.875 60.6875 334.359 59.125 334.484 57.2812Z" />
            <path
                d="M380.891 19.4062L380.516 27.2344C379.328 27.0781 378.203 27 377.141 27C374.922 27 373.125 27.2188 371.75 27.6562C370.375 28.0938 369.328 28.8438 368.609 29.9062C367.922 30.9688 367.453 32.1875 367.203 33.5625C366.984 34.9062 366.875 36.7188 366.875 39C366.875 40.2812 366.922 42.1562 367.016 44.625C367.141 47.0938 367.203 48.8594 367.203 49.9219V72H357.969V20.5781H366.359L367.297 26.3438C368.266 24.0938 369.734 22.3594 371.703 21.1406C373.672 19.8906 376.031 19.2656 378.781 19.2656C379.469 19.2656 380.172 19.3125 380.891 19.4062Z" />
            <path
                d="M428.797 57.75C428.797 60.75 428.469 63.2188 427.812 65.1562C427.156 67.0625 426.062 68.5781 424.531 69.7031C423.031 70.8281 421.188 71.6094 419 72.0469C416.844 72.4844 414.109 72.7031 410.797 72.7031C408.859 72.7031 407.297 72.6875 406.109 72.6562C404.953 72.625 403.609 72.5469 402.078 72.4219C400.547 72.2969 399.328 72.1094 398.422 71.8594C397.516 71.5781 396.531 71.2188 395.469 70.7812C394.438 70.3125 393.625 69.7344 393.031 69.0469C392.438 68.3281 391.875 67.4844 391.344 66.5156C390.812 65.5469 390.438 64.4062 390.219 63.0938C390 61.75 389.891 60.2344 389.891 58.5469L397.156 56.6719C397.438 60.2344 397.766 62.4844 398.141 63.4219C398.703 64.7031 399.875 65.5156 401.656 65.8594C403 66.1406 405.828 66.2812 410.141 66.2812C412.734 66.2812 414.656 66.1719 415.906 65.9531C417.188 65.7031 418.047 65.25 418.484 64.5938C419.734 63.5625 420.359 60.0469 420.359 54.0469C420.359 53.1406 420.172 52.375 419.797 51.75C419.422 51.0938 418.969 50.6094 418.438 50.2969C417.906 49.9531 417.156 49.6719 416.188 49.4531C415.25 49.2031 414.391 49.0469 413.609 48.9844C412.859 48.8906 411.859 48.7812 410.609 48.6562C409.359 48.5312 408.359 48.4219 407.609 48.3281C405.328 48.0781 403.469 47.8438 402.031 47.625C400.594 47.375 399.141 47.0156 397.672 46.5469C396.203 46.0781 395.047 45.5 394.203 44.8125C393.391 44.125 392.641 43.2344 391.953 42.1406C391.266 41.0469 390.781 39.7344 390.5 38.2031C390.219 36.6719 390.078 34.8438 390.078 32.7188C390.078 30.4688 390.312 28.5625 390.781 27C391.25 25.4375 391.938 24.1406 392.844 23.1094C393.75 22.0781 394.984 21.2812 396.547 20.7188C398.141 20.125 399.922 19.7188 401.891 19.5C403.859 19.25 406.266 19.125 409.109 19.125C410.891 19.125 412.344 19.1562 413.469 19.2188C414.625 19.25 415.875 19.3594 417.219 19.5469C418.594 19.7031 419.703 19.9375 420.547 20.25C421.391 20.5625 422.234 21 423.078 21.5625C423.953 22.125 424.625 22.8281 425.094 23.6719C425.562 24.4844 425.938 25.4844 426.219 26.6719C426.531 27.8594 426.688 29.2188 426.688 30.75L420.406 32.6719C420.281 31.4531 420.156 30.5 420.031 29.8125C419.938 29.0938 419.703 28.4375 419.328 27.8438C418.953 27.25 418.562 26.8281 418.156 26.5781C417.75 26.3281 417.047 26.1094 416.047 25.9219C415.078 25.7344 414.094 25.625 413.094 25.5938C412.094 25.5625 410.656 25.5469 408.781 25.5469C404.781 25.5469 402.062 25.9531 400.625 26.7656C399.219 27.5469 398.516 28.8438 398.516 30.6562V35.4375C398.516 37.5 399.125 38.8125 400.344 39.375C401.594 39.9062 404.906 40.5156 410.281 41.2031C410.844 41.2969 411.266 41.3594 411.547 41.3906C413.703 41.6406 415.406 41.875 416.656 42.0938C417.938 42.3125 419.281 42.6094 420.688 42.9844C422.094 43.3281 423.156 43.75 423.875 44.25C424.625 44.7188 425.359 45.3281 426.078 46.0781C426.828 46.8281 427.359 47.75 427.672 48.8438C428.016 49.9375 428.281 51.2031 428.469 52.6406C428.688 54.0781 428.797 55.7812 428.797 57.75Z" />
        </mask> -->
        <path
            d="M5.14062 72L8.60938 1.73438H18.9219L39.0781 56.7188L58.8594 1.73438H69.1719L72.875 72H63.5938L61.1562 15.7031L41.75 72H36.3125L15.9688 16.125L13.9062 72H5.14062Z"
            stroke="#0dc1c1" stroke-width="1" mask="url(#path-1-outside-1)" />
        <path
            d="M123.219 72H115.906L114.406 64.6406C113.469 67.8594 111.766 70.0156 109.297 71.1094C106.859 72.1719 103.281 72.7031 98.5625 72.7031C95.4375 72.7031 92.875 72.4062 90.875 71.8125C88.875 71.1875 87.2812 70.1562 86.0938 68.7188C84.9062 67.2812 84.0781 65.5312 83.6094 63.4688C83.1719 61.375 82.9531 58.6875 82.9531 55.4062C82.9531 53.9375 83.2031 52.625 83.7031 51.4688C84.2344 50.3125 84.9375 49.3281 85.8125 48.5156C86.7188 47.7031 87.9062 47 89.375 46.4062C90.875 45.8125 92.4219 45.3438 94.0156 45C95.6094 44.6562 97.5312 44.3906 99.7812 44.2031C102.062 43.9844 104.281 43.8438 106.438 43.7812C108.594 43.7188 111.109 43.6875 113.984 43.6875V29.7656C113.984 28.1719 113.234 27.0781 111.734 26.4844C110.234 25.8594 107.562 25.5469 103.719 25.5469C101.031 25.5469 99.0156 25.6094 97.6719 25.7344C96.3281 25.8594 95.2969 26.2344 94.5781 26.8594C93.8906 27.4531 93.4844 28.0469 93.3594 28.6406C93.2656 29.2344 93.2031 30.3438 93.1719 31.9688C93.1406 32.5625 93.125 33.0312 93.125 33.375L85.9531 33.0938C85.8906 32.5938 85.8594 31.8594 85.8594 30.8906C85.8594 28.7969 86.1562 27.0312 86.75 25.5938C87.375 24.125 88.1719 22.9844 89.1406 22.1719C90.1094 21.3281 91.4375 20.6719 93.125 20.2031C94.8125 19.7344 96.4844 19.4375 98.1406 19.3125C99.7969 19.1875 101.859 19.125 104.328 19.125C108.078 19.125 111.125 19.4219 113.469 20.0156C115.812 20.5781 117.734 21.6094 119.234 23.1094C120.734 24.6094 121.766 26.5312 122.328 28.875C122.922 31.1875 123.219 34.2188 123.219 37.9688V72ZM113.984 57.2812V49.2656C107.828 49.2656 103.094 49.5 99.7812 49.9688C96.4688 50.4375 94.25 51.0938 93.125 51.9375C92.0312 52.75 91.4844 53.9062 91.4844 55.4062C91.4844 55.4688 91.4844 55.5625 91.4844 55.6875C91.4844 60.4375 91.875 63.3906 92.6562 64.5469C93.4375 65.7031 95.8281 66.2812 99.8281 66.2812C103.234 66.2812 106 65.875 108.125 65.0625C110.25 64.25 111.719 63.2188 112.531 61.9688C113.375 60.6875 113.859 59.125 113.984 57.2812Z"
            stroke="#0dc1c1" stroke-width="1" mask="url(#path-1-outside-1)" />
        <path
            d="M157.766 65.4844L157.578 72.0469C154.953 72.4844 152.578 72.7031 150.453 72.7031C148.172 72.7031 146.281 72.4531 144.781 71.9531C143.312 71.4531 142.203 70.6562 141.453 69.5625C140.703 68.4688 140.188 67.2656 139.906 65.9531C139.625 64.6094 139.484 62.9062 139.484 60.8438V25.8281H132.5V20.5781H139.484V5.95312L148.672 5.20312V20.5781H158.141V25.8281H148.672V57.7031C148.672 61.0781 148.828 63.2656 149.141 64.2656C149.484 65.2656 150.391 65.7656 151.859 65.7656C153.297 65.7656 155.266 65.6719 157.766 65.4844Z"
            stroke="#0dc1c1" stroke-width="1" mask="url(#path-1-outside-1)" />
        <path
            d="M210.875 72H201.641V40.7812C201.641 39.6562 201.656 38.2344 201.688 36.5156C201.75 34.7969 201.781 33.6562 201.781 33.0938C201.781 31.5312 201.656 30.3281 201.406 29.4844C201.188 28.6406 200.656 27.8906 199.812 27.2344C198.969 26.5781 197.781 26.1406 196.25 25.9219C194.719 25.7031 192.625 25.5938 189.969 25.5938C188.719 25.5938 187.531 25.6719 186.406 25.8281C185.312 25.9531 184.266 26.1875 183.266 26.5312C182.266 26.8438 181.453 27.2969 180.828 27.8906C180.203 28.4844 179.859 29.1875 179.797 30C179.359 35.625 179.141 40.6875 179.141 45.1875V72H169.859V2.34375L179.141 1.59375V24.4688C181.391 20.9062 186.047 19.125 193.109 19.125C194.953 19.1562 196.609 19.2812 198.078 19.5C199.578 19.6875 200.906 19.9219 202.062 20.2031C203.219 20.4844 204.234 20.875 205.109 21.375C205.984 21.875 206.734 22.3906 207.359 22.9219C207.984 23.4531 208.516 24.125 208.953 24.9375C209.391 25.7188 209.734 26.4844 209.984 27.2344C210.234 27.9844 210.422 28.9062 210.547 30C210.703 31.0938 210.797 32.125 210.828 33.0938C210.891 34.0312 210.922 35.1875 210.922 36.5625C210.922 37.1562 210.906 38.125 210.875 39.4688C210.875 40.7812 210.875 41.7969 210.875 42.5156V72Z"
            stroke="#0dc1c1" stroke-width="1" mask="url(#path-1-outside-1)" />
        <path
            d="M297.125 2.15625L282.312 72H272.141L258.828 17.0156L245.609 72H235.484L220.109 2.15625H230.141L241.109 58.9219L254.469 2.15625H263.891L277.625 58.9219L288.312 2.15625H297.125Z"
            stroke="#0dc1c1" stroke-width="1" mask="url(#path-1-outside-1)" />
        <path
            d="M343.719 72H336.406L334.906 64.6406C333.969 67.8594 332.266 70.0156 329.797 71.1094C327.359 72.1719 323.781 72.7031 319.062 72.7031C315.938 72.7031 313.375 72.4062 311.375 71.8125C309.375 71.1875 307.781 70.1562 306.594 68.7188C305.406 67.2812 304.578 65.5312 304.109 63.4688C303.672 61.375 303.453 58.6875 303.453 55.4062C303.453 53.9375 303.703 52.625 304.203 51.4688C304.734 50.3125 305.438 49.3281 306.312 48.5156C307.219 47.7031 308.406 47 309.875 46.4062C311.375 45.8125 312.922 45.3438 314.516 45C316.109 44.6562 318.031 44.3906 320.281 44.2031C322.562 43.9844 324.781 43.8438 326.938 43.7812C329.094 43.7188 331.609 43.6875 334.484 43.6875V29.7656C334.484 28.1719 333.734 27.0781 332.234 26.4844C330.734 25.8594 328.062 25.5469 324.219 25.5469C321.531 25.5469 319.516 25.6094 318.172 25.7344C316.828 25.8594 315.797 26.2344 315.078 26.8594C314.391 27.4531 313.984 28.0469 313.859 28.6406C313.766 29.2344 313.703 30.3438 313.672 31.9688C313.641 32.5625 313.625 33.0312 313.625 33.375L306.453 33.0938C306.391 32.5938 306.359 31.8594 306.359 30.8906C306.359 28.7969 306.656 27.0312 307.25 25.5938C307.875 24.125 308.672 22.9844 309.641 22.1719C310.609 21.3281 311.938 20.6719 313.625 20.2031C315.312 19.7344 316.984 19.4375 318.641 19.3125C320.297 19.1875 322.359 19.125 324.828 19.125C328.578 19.125 331.625 19.4219 333.969 20.0156C336.312 20.5781 338.234 21.6094 339.734 23.1094C341.234 24.6094 342.266 26.5312 342.828 28.875C343.422 31.1875 343.719 34.2188 343.719 37.9688V72ZM334.484 57.2812V49.2656C328.328 49.2656 323.594 49.5 320.281 49.9688C316.969 50.4375 314.75 51.0938 313.625 51.9375C312.531 52.75 311.984 53.9062 311.984 55.4062C311.984 55.4688 311.984 55.5625 311.984 55.6875C311.984 60.4375 312.375 63.3906 313.156 64.5469C313.938 65.7031 316.328 66.2812 320.328 66.2812C323.734 66.2812 326.5 65.875 328.625 65.0625C330.75 64.25 332.219 63.2188 333.031 61.9688C333.875 60.6875 334.359 59.125 334.484 57.2812Z"
            stroke="#0dc1c1" stroke-width="1" mask="url(#path-1-outside-1)" />
        <path
            d="M380.891 19.4062L380.516 27.2344C379.328 27.0781 378.203 27 377.141 27C374.922 27 373.125 27.2188 371.75 27.6562C370.375 28.0938 369.328 28.8438 368.609 29.9062C367.922 30.9688 367.453 32.1875 367.203 33.5625C366.984 34.9062 366.875 36.7188 366.875 39C366.875 40.2812 366.922 42.1562 367.016 44.625C367.141 47.0938 367.203 48.8594 367.203 49.9219V72H357.969V20.5781H366.359L367.297 26.3438C368.266 24.0938 369.734 22.3594 371.703 21.1406C373.672 19.8906 376.031 19.2656 378.781 19.2656C379.469 19.2656 380.172 19.3125 380.891 19.4062Z"
            stroke="#0dc1c1" stroke-width="1" mask="url(#path-1-outside-1)" />
        <path
            d="M428.797 57.75C428.797 60.75 428.469 63.2188 427.812 65.1562C427.156 67.0625 426.062 68.5781 424.531 69.7031C423.031 70.8281 421.188 71.6094 419 72.0469C416.844 72.4844 414.109 72.7031 410.797 72.7031C408.859 72.7031 407.297 72.6875 406.109 72.6562C404.953 72.625 403.609 72.5469 402.078 72.4219C400.547 72.2969 399.328 72.1094 398.422 71.8594C397.516 71.5781 396.531 71.2188 395.469 70.7812C394.438 70.3125 393.625 69.7344 393.031 69.0469C392.438 68.3281 391.875 67.4844 391.344 66.5156C390.812 65.5469 390.438 64.4062 390.219 63.0938C390 61.75 389.891 60.2344 389.891 58.5469L397.156 56.6719C397.438 60.2344 397.766 62.4844 398.141 63.4219C398.703 64.7031 399.875 65.5156 401.656 65.8594C403 66.1406 405.828 66.2812 410.141 66.2812C412.734 66.2812 414.656 66.1719 415.906 65.9531C417.188 65.7031 418.047 65.25 418.484 64.5938C419.734 63.5625 420.359 60.0469 420.359 54.0469C420.359 53.1406 420.172 52.375 419.797 51.75C419.422 51.0938 418.969 50.6094 418.438 50.2969C417.906 49.9531 417.156 49.6719 416.188 49.4531C415.25 49.2031 414.391 49.0469 413.609 48.9844C412.859 48.8906 411.859 48.7812 410.609 48.6562C409.359 48.5312 408.359 48.4219 407.609 48.3281C405.328 48.0781 403.469 47.8438 402.031 47.625C400.594 47.375 399.141 47.0156 397.672 46.5469C396.203 46.0781 395.047 45.5 394.203 44.8125C393.391 44.125 392.641 43.2344 391.953 42.1406C391.266 41.0469 390.781 39.7344 390.5 38.2031C390.219 36.6719 390.078 34.8438 390.078 32.7188C390.078 30.4688 390.312 28.5625 390.781 27C391.25 25.4375 391.938 24.1406 392.844 23.1094C393.75 22.0781 394.984 21.2812 396.547 20.7188C398.141 20.125 399.922 19.7188 401.891 19.5C403.859 19.25 406.266 19.125 409.109 19.125C410.891 19.125 412.344 19.1562 413.469 19.2188C414.625 19.25 415.875 19.3594 417.219 19.5469C418.594 19.7031 419.703 19.9375 420.547 20.25C421.391 20.5625 422.234 21 423.078 21.5625C423.953 22.125 424.625 22.8281 425.094 23.6719C425.562 24.4844 425.938 25.4844 426.219 26.6719C426.531 27.8594 426.688 29.2188 426.688 30.75L420.406 32.6719C420.281 31.4531 420.156 30.5 420.031 29.8125C419.938 29.0938 419.703 28.4375 419.328 27.8438C418.953 27.25 418.562 26.8281 418.156 26.5781C417.75 26.3281 417.047 26.1094 416.047 25.9219C415.078 25.7344 414.094 25.625 413.094 25.5938C412.094 25.5625 410.656 25.5469 408.781 25.5469C404.781 25.5469 402.062 25.9531 400.625 26.7656C399.219 27.5469 398.516 28.8438 398.516 30.6562V35.4375C398.516 37.5 399.125 38.8125 400.344 39.375C401.594 39.9062 404.906 40.5156 410.281 41.2031C410.844 41.2969 411.266 41.3594 411.547 41.3906C413.703 41.6406 415.406 41.875 416.656 42.0938C417.938 42.3125 419.281 42.6094 420.688 42.9844C422.094 43.3281 423.156 43.75 423.875 44.25C424.625 44.7188 425.359 45.3281 426.078 46.0781C426.828 46.8281 427.359 47.75 427.672 48.8438C428.016 49.9375 428.281 51.2031 428.469 52.6406C428.688 54.0781 428.797 55.7812 428.797 57.75Z"
            stroke="#0dc1c1" stroke-width="1" mask="url(#path-1-outside-1)" />
    </g>
    <defs>
        <filter id="filter0_d" x="0.0900269" y="0.509682" width="433.707" height="81.1934"
            filterUnits="userSpaceOnUse" color-interpolation-filters="sRGB">
            <feFlood flood-opacity="0" result="BackgroundImageFix" />
            <feColorMatrix in="SourceAlpha" type="matrix" values="0 0 0 0 0 0 0 0 0 0 0 0 0 0 0 0 0 0 127 0" />
            <feOffset dy="4" />
            <feGaussianBlur stdDeviation="2" />
            <feColorMatrix type="matrix" values="0 0 0 0 0 0 0 0 0 0 0 0 0 0 0 0 0 0 0.25 0" />
            <feBlend mode="normal" in2="BackgroundImageFix" result="effect1_dropShadow" />
            <feBlend mode="normal" in="SourceGraphic" in2="effect1_dropShadow" result="shape" />
        </filter>
    </defs>
</svg>