<svg class="logo" width="35" height="35" viewBox="0 0 35 35" fill="none" xmlns="http://www.w3.org/2000/svg">
    <path
        d="M16.2626 1.23744C16.946 0.55402 18.054 0.554019 18.7374 1.23744L33.7626 16.2626C34.446 16.946 34.446 18.054 33.7626 18.7374L18.7374 33.7626C18.054 34.446 16.946 34.446 16.2626 33.7626L1.23744 18.7374C0.55402 18.054 0.554019 16.946 1.23744 16.2626L16.2626 1.23744Z"
        fill="url(#paint0_linear)" />
    <path
        d="M15.2141 21.9167V14.1467L11.5391 20.2833H11.3524L7.6774 14.1467V21.9167H7.44407V13.6333H7.63074L11.4457 20.0033L15.2607 13.6333H15.4474V21.9167H15.2141ZM21.0449 13.7033H21.3016L22.6433 16.8067L23.9966 13.7033H24.2533L22.7716 17.0867L24.7549 21.625L28.2316 13.6333H28.4883L24.8833 21.9167H24.6266L22.6549 17.3783L20.6833 21.9167H20.4266L16.8216 13.6333H17.0783L20.5549 21.625L22.5266 17.0867L21.0449 13.7033Z"
        fill="white" />
    <defs>
        <linearGradient id="paint0_linear" x1="0" y1="0" x2="35" y2="35" gradientUnits="userSpaceOnUse">
            <stop stop-color="#3E92B6" stop-opacity="0.8" />
            <stop offset="1" stop-color="#BF2D2D" stop-opacity="0.8" />
        </linearGradient>
    </defs>
</svg>