<?xml version="1.0" standalone="no"?>
<!DOCTYPE svg PUBLIC "-//W3C//DTD SVG 20010904//EN"
 "http://www.w3.org/TR/2001/REC-SVG-20010904/DTD/svg10.dtd">
<svg version="1.0" xmlns="http://www.w3.org/2000/svg"
 width="700.000000pt" height="700.000000pt" viewBox="0 0 700.000000 700.000000"
 preserveAspectRatio="xMidYMid meet">
<metadata>
Created by potrace 1.11, written by Peter Selinger 2001-2013
</metadata>
<g transform="translate(0.000000,700.000000) scale(0.100000,-0.100000)"
fill="#000000" stroke="none">
<path d="M3409 6847 c-25 -7 -65 -25 -90 -39 -25 -16 -698 -682 -1585 -1570
-1730 -1732 -1588 -1576 -1589 -1738 0 -163 -137 -14 1612 -1761 1739 -1736
1582 -1593 1743 -1593 161 0 4 -143 1743 1593 1749 1747 1612 1598 1612 1761
-1 162 142 5 -1594 1743 -1712 1714 -1592 1603 -1737 1612 -40 3 -88 0 -115
-8z m-1504 -3212 c208 -349 382 -635 385 -635 3 1 176 286 385 635 272 454
385 635 397 635 17 0 18 -45 18 -825 0 -818 0 -825 -20 -825 -20 0 -20 7 -20
775 0 426 -3 775 -7 774 -5 0 -172 -274 -372 -610 -270 -453 -368 -609 -382
-609 -14 0 -110 153 -375 598 -196 328 -363 604 -370 612 -12 12 -14 -110 -14
-763 0 -770 0 -777 -20 -777 -20 0 -20 7 -20 825 0 779 1 825 18 825 12 0 126
-182 397 -635z m1855 -160 c190 -437 347 -795 351 -795 3 0 94 203 202 451
l196 452 -140 321 c-78 176 -144 329 -146 339 -4 12 0 17 14 17 16 0 43 -55
153 -310 74 -170 136 -310 139 -310 3 0 66 140 140 310 107 247 138 310 152
310 11 0 19 -3 19 -7 0 -4 -65 -157 -145 -339 l-145 -331 197 -452 c109 -248
201 -451 204 -451 3 0 161 357 351 793 302 694 347 792 367 795 13 2 22 -1 20
-6 -2 -5 -164 -377 -359 -826 -339 -779 -356 -816 -380 -814 -22 3 -42 45
-218 451 -107 246 -198 447 -201 447 -4 0 -94 -203 -201 -450 -185 -427 -196
-450 -219 -448 -23 3 -54 70 -356 763 -182 418 -343 788 -357 823 l-27 62 22
0 c20 0 59 -86 367 -795z"/>
</g>
</svg>
